<?xml version="1.0" encoding="utf-8"?>
<!-- Generator: Adobe Illustrator 21.1.0, SVG Export Plug-In . SVG Version: 6.00 Build 0)  -->
<svg version="1.1" id="Capa_1" xmlns="http://www.w3.org/2000/svg" xmlns:xlink="http://www.w3.org/1999/xlink" x="0px" y="0px"
	 viewBox="0 0 493.4 493.4" style="enable-background:new 0 0 493.4 493.4;" xml:space="preserve">
<style type="text/css">
	.st0{fill:#FFFFFF;}
</style>
<g>
	<path class="st0" d="M355.5,370.9c-1.5-3.6-4.3-5.4-8.3-5.4h-64V9.1c0-2.7-0.9-4.9-2.6-6.6c-1.7-1.7-3.9-2.6-6.6-2.6h-54.8
		c-2.7,0-4.9,0.9-6.6,2.6c-1.7,1.7-2.6,3.9-2.6,6.6v356.3h-64c-3.8,0-6.6,1.8-8.3,5.4c-1.5,3.6-1,6.9,1.4,10l101.4,109.6
		c1.9,1.9,4.2,2.9,6.9,2.9c2.5,0,4.7-0.9,6.6-2.9L354,380.9C356.5,377.8,357,374.5,355.5,370.9z"/>
</g>
</svg>
